<?xml version="1.0" encoding="utf-8"?>
<!-- Generator: Adobe Illustrator 25.2.0, SVG Export Plug-In . SVG Version: 6.00 Build 0)  -->
<svg version="1.1" xmlns="http://www.w3.org/2000/svg" xmlns:xlink="http://www.w3.org/1999/xlink" x="0px" y="0px"
	 viewBox="0 0 750 500" style="enable-background:new 0 0 750 500;" xml:space="preserve">
<style type="text/css">
	.st0{fill:#FFFFFF;}
	.st1{fill:#F24E29;}
	.st2{font-family:'OpenSans-Extrabold';}
	.st3{font-size:129.3699px;}
	.st4{fill:#1F3B53;}
	.st5{font-family:'OpenSans-Semibold';}
	.st6{font-size:72.9089px;}
	.st7{fill:none;stroke:#1F3B53;stroke-width:5.0738;stroke-linecap:round;stroke-linejoin:round;stroke-miterlimit:10;}
	.st8{fill:#1F3B53;stroke:#1F3B53;stroke-width:2;stroke-linecap:round;stroke-linejoin:round;stroke-miterlimit:10;}
</style>
<g id="BACKGROUND">
	<g id="background">
		<rect class="st0" width="750" height="500"/>
	</g>
</g>
<g id="OBJECTS">
	<g>
		<text transform="matrix(1 0 0 1 343.7589 261.4434)" class="st1 st2 st3">Click</text>
		<text transform="matrix(1 0 0 1 314.4908 330.7042)" class="st4 st5 st6">&amp;</text>
		<text transform="matrix(1 0 0 1 397.9918 330.8135)" class="st4 st2 st6">Collect</text>
	</g>
	<g>
		<g>
			<path class="st7" d="M199.26,153.93c-10.07,13.38-62.37-72.19-79.12-34.76c-8,17.87,33.96,53.46,31.39,67.46"/>
			<polygon class="st1" points="292.46,288.54 233.8,143.01 130.56,161 132.49,167.88 130.56,161 124.9,172.02 113.26,170.72 
				125.4,338.99 180.64,339.73 			"/>
			<g>
				<path class="st0" d="M152.78,321.19c-1.43-6.17-2.7-12.36-4.05-18.54l-3.81-18.59c-2.54-12.39-4.89-24.82-7.24-37.24
					c-2.3-12.44-4.59-24.87-6.7-37.34l-3.16-18.71c-0.97-6.25-2.02-12.49-2.91-18.75c1.43,6.17,2.7,12.36,4.06,18.54l3.81,18.59
					c2.54,12.39,4.89,24.82,7.24,37.24c2.29,12.44,4.59,24.87,6.7,37.34l3.16,18.71C150.84,308.69,151.88,314.93,152.78,321.19z"/>
			</g>
			<g>
				<path class="st0" d="M125.4,338.99c2.01-1.9,4.16-3.59,6.34-5.22c2.19-1.63,4.42-3.19,6.7-4.67c2.28-1.49,4.61-2.89,6.99-4.23
					c2.38-1.34,4.8-2.6,7.35-3.67c-2.01,1.9-4.15,3.6-6.34,5.23c-2.19,1.63-4.42,3.19-6.7,4.67c-2.28,1.48-4.61,2.89-6.99,4.23
					C130.37,336.65,127.95,337.92,125.4,338.99z"/>
			</g>
			<g>
				<path class="st0" d="M180.64,339.73c-2.59-1.13-5.06-2.47-7.48-3.86c-2.42-1.4-4.79-2.87-7.11-4.41
					c-2.32-1.54-4.59-3.16-6.82-4.85c-2.22-1.69-4.4-3.45-6.45-5.41c2.6,1.13,5.06,2.46,7.48,3.86c2.42,1.4,4.79,2.87,7.11,4.42
					c2.32,1.54,4.59,3.16,6.82,4.85C176.41,336.02,178.59,337.77,180.64,339.73z"/>
			</g>
			<g>
				<path class="st0" d="M130.56,161c2.34,7.37,4.54,14.79,6.82,22.18l6.58,22.25c4.38,14.84,8.58,29.72,12.79,44.61
					c4.15,14.9,8.29,29.8,12.25,44.76l5.94,22.43c1.9,7.5,3.87,14.98,5.7,22.5c-2.35-7.37-4.54-14.79-6.82-22.18l-6.58-22.25
					c-4.38-14.84-8.58-29.72-12.78-44.61c-4.14-14.9-8.29-29.8-12.25-44.76l-5.94-22.43C134.36,176,132.39,168.52,130.56,161z"/>
			</g>
			<path class="st0" d="M160.03,171.03c-3.04,0.72-4.92,3.76-4.2,6.79s3.76,4.92,6.79,4.2c3.04-0.72,4.92-3.76,4.2-6.79
				C166.11,172.19,163.07,170.31,160.03,171.03z M161.99,179.34c-1.55,0.37-3.11-0.6-3.48-2.15c-0.37-1.55,0.6-3.11,2.15-3.48
				c1.55-0.37,3.11,0.6,3.48,2.15C164.5,177.42,163.54,178.97,161.99,179.34z"/>
			<path class="st0" d="M217.04,161.14c-3.04,0.72-4.92,3.76-4.2,6.79c0.72,3.04,3.76,4.92,6.79,4.2c3.04-0.72,4.92-3.76,4.2-6.79
				C223.12,162.3,220.07,160.42,217.04,161.14z M219,169.45c-1.55,0.37-3.11-0.6-3.48-2.15c-0.37-1.55,0.6-3.11,2.15-3.48
				c1.55-0.37,3.11,0.6,3.48,2.15C221.51,167.53,220.55,169.08,219,169.45z"/>
			<path class="st7" d="M161.33,176.53c16.55,2.55-5.72-95.22,32.4-80.11c18.2,7.22,12.99,61.99,24.61,70.22"/>
		</g>
		<g>
			<g>
				<g>
					<path class="st0" d="M270.84,293.89l-3.21-0.34c-5.27-0.57-10.5-1.67-15.54-3.3c-4.41-1.42-8.12-2.56-11.1-3.47
						c-12.55-3.85-14.16-4.35-14.16-8.53c0-1.53,0.6-2.98,1.69-4.07c1.09-1.09,2.53-1.69,4.07-1.69l11.3,1.75
						c0.1,0.02,0.2-0.02,0.27-0.09c0.02-0.02,0.04-0.05,0.06-0.08c0.06-0.12,0.04-0.26-0.06-0.36l-29.95-29.95
						c-2.24-2.24-2.24-5.9,0-8.14c1.08-1.08,2.53-1.68,4.07-1.68c1.54,0,2.98,0.6,4.07,1.69l13.17,13.17c0.12,0.12,0.32,0.12,0.44,0
						c0.12-0.12,0.12-0.32,0-0.44c-2.24-2.24-2.24-5.9,0-8.14c1.09-1.09,2.53-1.69,4.07-1.68c1.54,0,2.99,0.6,4.07,1.68l3.98,3.98
						c0.12,0.12,0.32,0.12,0.44,0c0.12-0.12,0.12-0.32,0-0.44c-2.24-2.24-2.25-5.89,0-8.14c1.09-1.09,2.53-1.68,4.07-1.68
						c1.54,0,2.98,0.59,4.07,1.68l3.37,3.37c0.12,0.12,0.32,0.12,0.44,0c0.12-0.12,0.12-0.32,0-0.44c-2.24-2.24-2.25-5.89,0-8.14
						c1.09-1.09,2.54-1.69,4.07-1.68c1.54,0,2.99,0.6,4.07,1.68l8.53,8.53c5.7,5.7,10.5,12.2,14.27,19.32l5.22,9.85L270.84,293.89z"
						/>
					<path class="st8" d="M214.42,235.84c1.02-1.02,2.39-1.59,3.85-1.59c1.46,0,2.82,0.57,3.85,1.6l13.17,13.17
						c0.24,0.24,0.63,0.24,0.88,0c0.24-0.24,0.24-0.63,0-0.88c-2.12-2.12-2.12-5.58,0-7.7c1.03-1.03,2.4-1.6,3.85-1.59
						c1.46,0,2.82,0.57,3.85,1.59l3.98,3.98c0.24,0.24,0.63,0.24,0.88,0c0.24-0.24,0.24-0.63,0-0.88c-2.12-2.12-2.13-5.58,0-7.7
						c1.03-1.03,2.4-1.59,3.85-1.59c1.45,0,2.82,0.56,3.85,1.59l3.37,3.37c0.24,0.24,0.63,0.24,0.88,0c0.24-0.24,0.24-0.63,0-0.88
						c-2.12-2.12-2.13-5.58,0-7.7c1.03-1.03,2.4-1.6,3.85-1.59c1.46,0,2.82,0.57,3.85,1.59l8.53,8.53
						c5.68,5.68,10.46,12.15,14.22,19.25l5.11,9.65l-25.5,25.5l-3.06-0.33c-5.25-0.56-10.46-1.67-15.48-3.28
						c-4.41-1.42-8.13-2.56-11.11-3.47c-12.76-3.92-13.94-4.39-13.94-8.24c0-1.45,0.57-2.82,1.6-3.85c1.02-1.02,2.37-1.59,3.8-1.6
						l11.3,1.75c0.2,0.03,0.4-0.04,0.53-0.17c0.05-0.05,0.08-0.1,0.11-0.16c0.12-0.24,0.08-0.53-0.11-0.72l-29.95-29.95
						C212.29,241.42,212.29,237.96,214.42,235.84 M213.98,235.4c-2.37,2.37-2.37,6.21,0,8.58l29.95,29.95l-11.35-1.75
						c-1.67,0-3.19,0.68-4.29,1.78c-1.1,1.1-1.78,2.61-1.78,4.29c0,5.49,2.88,5.04,25.48,12.3c5.08,1.63,10.3,2.74,15.6,3.31
						l3.35,0.36l26.04-26.04l-5.32-10.05c-3.78-7.14-8.61-13.68-14.33-19.39l-8.53-8.53c-1.18-1.18-2.74-1.77-4.29-1.77
						c-1.56,0-3.1,0.59-4.29,1.77c-2.37,2.37-2.37,6.2,0,8.57l-3.37-3.37c-1.19-1.19-2.73-1.78-4.29-1.77
						c-1.55,0-3.11,0.59-4.29,1.77c-2.37,2.37-2.37,6.2,0,8.57l-3.98-3.98c-1.18-1.18-2.74-1.77-4.29-1.77
						c-1.56,0-3.11,0.59-4.29,1.77c-2.37,2.37-2.37,6.21,0,8.58l-13.17-13.17c-1.18-1.18-2.74-1.77-4.29-1.78
						C216.71,233.63,215.16,234.22,213.98,235.4L213.98,235.4z"/>
				</g>
				<g>
					<path class="st0" d="M281.7,300.53c-1.1,1.1-2.89,1.1-3.99,0l-6.75-6.75l25.6-25.6l6.75,6.75c1.1,1.1,1.1,2.89,0,3.99
						L281.7,300.53z"/>
					<path class="st8" d="M296.55,268.61l6.53,6.53c0.98,0.98,0.98,2.58,0,3.56l-21.6,21.6c-0.98,0.98-2.58,0.98-3.56,0l-6.53-6.53
						L296.55,268.61 M296.55,267.74l-26.04,26.04l6.97,6.97c1.22,1.22,3.21,1.22,4.43,0l21.6-21.6c1.22-1.22,1.22-3.21,0-4.43
						L296.55,267.74L296.55,267.74z"/>
				</g>
				<path class="st8" d="M246.69,259.53L246.69,259.53c-0.24,0.24-0.63,0.24-0.87,0l-10.48-10.48l0.87-0.87l10.48,10.48
					C246.93,258.9,246.93,259.29,246.69,259.53z"/>
				<path class="st8" d="M254.62,250.31L254.62,250.31c-0.24,0.24-0.63,0.24-0.87,0l-5.89-5.89l0.87-0.87l5.89,5.89
					C254.86,249.68,254.86,250.07,254.62,250.31z"/>
				<path class="st8" d="M266.43,244.97L266.43,244.97c-0.24,0.24-0.63,0.24-0.87,0l-5.89-5.89l0.87-0.87l5.89,5.89
					C266.67,244.34,266.67,244.73,266.43,244.97z"/>
			</g>
			<g>
				<polygon class="st0" points="208.29,230.68 189.59,221.05 198.66,211.98 				"/>
				<polygon class="st0" points="230.25,230.68 239.88,211.98 248.94,221.05 				"/>
				<polygon class="st0" points="208.29,252.63 198.66,271.33 189.59,262.26 				"/>
				<polygon class="st0" points="219.27,224.76 212.86,204.72 225.68,204.72 				"/>
				<polygon class="st0" points="202.37,241.65 182.34,248.07 182.34,235.24 				"/>
			</g>
		</g>
	</g>
</g>
</svg>
