<?xml version="1.0" encoding="utf-8"?>
<!-- Generator: Adobe Illustrator 25.2.0, SVG Export Plug-In . SVG Version: 6.00 Build 0)  -->
<svg version="1.1" id="Design" xmlns="http://www.w3.org/2000/svg" xmlns:xlink="http://www.w3.org/1999/xlink" x="0px" y="0px"
	 viewBox="0 0 2000 2000" style="enable-background:new 0 0 2000 2000;" xml:space="preserve">
<style type="text/css">
	.st0{fill:#FFFFFF;}
	.st1{fill:#FFEEEE;}
	.st2{clip-path:url(#SVGID_2_);}
	.st3{fill:#476E8F;}
	.st4{fill:#010101;}
	.st5{fill:#3A5D7A;}
	.st6{fill:#8D7779;}
	.st7{fill:#E3A98D;}
	.st8{fill:#220902;}
	.st9{fill:#E2A98D;}
	.st10{fill:#8A7362;}
	.st11{fill:#6D7172;}
	.st12{fill:#747979;}
	.st13{fill:#A5ADAD;}
	.st14{fill:#1E2122;}
</style>
<rect id="Baclground" class="st0" width="2000" height="2000"/>
<circle class="st1" cx="1000" cy="1000" r="682.36"/>
<g>
	<defs>
		<circle id="SVGID_1_" cx="1000" cy="1000" r="682.36"/>
	</defs>
	<clipPath id="SVGID_2_">
		<use xlink:href="#SVGID_1_"  style="overflow:visible;"/>
	</clipPath>
	<g class="st2">
		<path class="st3" d="M993.31,1682.36c-70.63,0-141.27,0-211.9,0c-2.1-2.54-1.68-5.48-1.19-8.35c4.34-25.55,5.67-51.3,4.99-77.17
			c-0.73-27.65,1.31-55.26,1.01-82.89c-0.16-15.07-1.97-30.08-2.82-45.14c-0.2-3.64-0.31-7.26-0.38-10.9
			c-0.2-10.17,0.66-20.38-1.04-30.5c-1.33-7.91-1.49-15.85-1.25-23.89c0.47-15.81,0.59-31.65-2.23-45.6
			c-0.34,6.03,1.17,13.68,1.35,21.42c0.66,28.48-2.51,56.62-6.92,84.69c-2.06,13.12-2.83,26.37-2.97,39.66
			c-0.18,17.19-3.54,33.96-6.57,50.79c-2.64,14.66-5.5,29.24-5.58,44.31c-0.11,19.77,2.41,39.17,5.99,58.51
			c1.16,6.26,2.51,12.48,3.69,18.74c0.4,2.1,1.15,4.28-0.29,6.33c-48.06,0-96.12,0-144.18,0c-1.97-1.55-2.72-3.8-3.47-6.06
			c-8.04-24.21-15.34-48.61-18.2-74.09c-1.97-17.62-0.89-35.18,0.9-52.74c4.24-41.58,13-82.27,23.44-122.68
			c5.47-21.17,8.57-42.82,11.55-64.46c4.44-32.18,12.58-63.53,20.97-94.83c9.52-35.52,17.88-71.32,26.5-107.06
			c2.31-9.58,5.77-18.78,8.95-28.08c6.19-18.08,18.23-31.02,34.29-40.96c21.14-13.09,43.79-22.99,66.43-33.02
			c22.11-9.8,45.11-17.71,65.65-30.85c9.55-6.11,18.62-12.75,25.46-22.01c1.16-1.57,2.37-3.84,4.54-3.41
			c2.34,0.47,1.98,3.16,2.46,5.02c0.82,3.19,0.77,6.5,1.11,9.75c1.68,16.09,7.39,30.61,16.3,44.1
			c6.62,10.02,13.09,20.15,19.88,30.06c4.57,6.68,7.66,7.28,12.85,1.15c10.61-12.55,23.75-22.54,34.35-35.05
			c2.12-2.5,4.55-4.71,6.89-7.01c8.95-8.79,13.34-9.37,24.15-3.44c2.87,1.58,1.45,2.72-0.21,3.84c-4.08,2.74-8.03,5.59-11.63,9
			c-4.86,4.62-7.68,10.18-8.52,16.68c-2.39,18.48-1.93,37.03-0.92,55.56c0.17,3.08,0.46,6.16,0.46,9.26
			c0,28.4-0.07,56.79,0.02,85.19c0.07,24.37,1.79,48.69,2.55,73.03c0.69,22.16,1.23,44.33,1.95,66.49
			c1.34,40.91,2.67,81.81,1.89,122.73c-0.36,18.51-1.33,37.03-2.82,55.52c-0.63,7.77-1.33,15.61-1.29,23.4
			c0.08,13.43-1.16,26.78-0.4,40.29c1.24,21.97,3.36,43.85,5.22,65.76C994.59,1676.52,995.52,1679.61,993.31,1682.36z"/>
		<path class="st3" d="M1396.35,1682.36c-42.23,0-84.47,0-126.7,0c-1.3-1.45-1.64-3.24-1.62-5.08c0.12-9.29-0.85-18.54-1.03-27.79
			c-0.57-28.83-3.25-57.41-9.41-85.58c-4.79-21.95-7.07-44.15-8.3-66.53c-0.58-10.52-1.94-20.99-3.36-31.43
			c-1.18-8.71-0.54-17.38-0.24-26.12c0.69-20.35,1.16-40.75-0.34-61.1c-0.21-2.91-0.35-5.82-0.24-8.73
			c0.44-12.57-0.96-25.08-1.12-37.62c-0.05-3.78,0.54-7.48,0.75-11.22c-0.28,3.86-0.79,7.68-0.8,11.57
			c-0.09,30.75,2.09,61.48,1.12,92.23c-0.52,16.53-1.62,33.04-2.92,49.54c-0.46,5.82-0.48,11.65-0.26,17.46
			c1.52,38.4-1.91,76.26-10.61,113.77c-5.37,23.13-5.25,46.58,0.43,69.83c0.55,2.27,1.37,4.61-0.29,6.82c-64.44,0-128.89,0-193.33,0
			c-1.46-1.62-1.56-3.63-1.56-5.65c0.08-35.1-3.56-70.15-2.06-105.25c0.89-20.74,0.28-41.48,1.13-62.19
			c0.8-19.61,2.73-39.24,1.86-58.85c-1.91-43.12,0.42-86.27-1.22-129.34c-1.36-35.75-1.71-71.6-6-107.22
			c-1.63-13.53-1.46-27.21-2.32-40.82c-0.89-13.99-2.82-27.86-3.79-41.83c-1.26-18.31-2.07-36.63-0.64-54.97
			c0.13-1.6,0.04-3.64,1.83-4.23c1.77-0.58,2.94,1.09,4,2.28c8.85,9.92,17.99,19.55,27.53,28.8c6.19,6,8.6,6.01,14.14-0.58
			c5.53-6.58,9.58-14.16,14.02-21.46c8.32-13.69,17.15-27.05,25.62-40.64c6.08-9.76,11.24-19.96,14.35-31.13
			c1.28-4.62,3.08-5.48,6.52-2.78c13.02,10.24,28.5,15.16,43.72,20.69c18.65,6.77,37.44,13.11,56.2,19.58
			c20.44,7.05,38.6,18.68,56.97,29.82c7.79,4.73,15.1,10.14,22.53,15.4c14.89,10.56,24.32,24.69,29,42.28
			c8.75,32.9,16.24,66.09,24.08,99.21c6.12,25.86,11.78,51.81,14.81,78.27c1.85,16.08,2.83,32.22,3.91,48.36
			c1.16,17.41,2.75,34.79,4.79,52.13c3.02,25.65,5.51,51.36,8.45,77.01c5.38,46.98,4.5,94.1,3.86,141.18
			c-0.21,15.39,0.42,30.93-1.8,46.29C1397.72,1678.7,1397.82,1680.75,1396.35,1682.36z"/>
		<path class="st4" d="M1396.35,1682.36c1.06-13.25,0.74-26.54,1.35-39.8c1.49-32.74,1.05-65.49,0.55-98.23
			c-0.27-17.43-1.84-34.84-3.75-52.19c-1.33-12.1-2.36-24.23-3.65-36.33c-1.19-11.2-2.59-22.37-3.83-33.57
			c-1.3-11.73-2.77-23.46-3.73-35.22c-1.73-21.19-2.83-42.44-4.75-63.61c-2.59-28.64-8.3-56.77-14.96-84.71
			c-7.63-31.98-15.27-63.96-23.02-95.91c-1.5-6.17-3.49-12.22-5.64-18.22c-3.98-11.13-10.66-20.32-19.96-27.43
			c-24.81-18.94-51.25-35.19-80.01-47.49c-2.84-1.21-5.78-2.2-8.72-3.12c-21.52-6.73-42.56-14.84-63.84-22.25
			c-12.44-4.33-24.11-10.08-34.59-18.94c-1.6,4.68-2.45,9.11-4.17,13.27c-3.42,8.26-7.52,16.16-12.26,23.72
			c-11.69,18.65-23.4,37.28-35.13,55.9c-2.14,3.39-4.46,6.67-7.52,9.31c-3.34,2.88-5.81,2.97-9.28,0.33
			c-1.44-1.1-2.75-2.38-4.03-3.68c-9.72-9.83-19.29-19.82-28.33-30.3c-0.44-0.51-0.77-1.25-1.58-1.13c-0.66,0.34-0.63,0.9-0.63,1.41
			c-0.08,6.73-0.66,13.47-0.56,20.16c0.24,15.98,0.62,31.96,2.5,47.89c1.81,15.33,3.22,30.72,3.65,46.18
			c0.4,14.36,1.8,28.65,3.11,42.95c1.5,16.29,2,32.65,2.58,49.01c0.86,24.17,2.24,48.32,1.9,72.52c-0.39,27.66-0.31,55.33,0.4,82.98
			c0.32,12.18,1.08,24.37,0.48,36.54c-1.39,28.35-1.77,56.71-2.34,85.08c-0.39,19.1-0.9,38.21-0.29,57.29
			c0.63,19.81,1.64,39.6,1.97,59.42c0.05,2.72-0.12,5.44-0.18,8.17c-1.09,0-2.18,0-3.28,0c-2.12-2.55-2.38-5.73-2.54-8.77
			c-0.85-15.79-2.15-31.57-2.37-47.38c-0.3-20.93-0.29-41.87-0.02-62.8c0.37-29.09,1.06-58.2,2.46-87.25
			c0.61-12.78-0.19-25.42-0.26-38.13c-0.18-30.76-0.31-61.53,0.01-92.29c0.3-28.94-2.08-57.79-2.53-86.71
			c-0.24-15.05-2.18-30.1-3.67-45.13c-0.84-8.5-1.15-17.08-1.32-25.59c-0.37-17.51-2.54-34.82-4.07-52.21
			c-1.64-18.68-2.89-37.42-0.59-56.1c1.15-9.37-2.27-16.63-7.77-23.52c-1.51-1.9-3.16-2.22-5.21-0.95
			c-6.68,4.16-12.09,9.36-14.2,17.26c-1.37,5.12-2.15,10.31-2.09,15.64c0.6,49.31,0.6,98.63,1.43,147.93
			c0.67,39.8,2.58,79.6,3.23,119.43c0.34,20.89,1.22,41.81,2.18,62.68c1.19,25.85,0.93,51.68,0.61,77.5
			c-0.24,18.87-1.72,37.76-2.62,56.64c-0.9,18.67-2.26,37.32-0.85,56.13c1.55,20.85,3.21,41.69,4.65,62.55
			c0.26,3.72,1.01,7.69-1.58,11.08c-1.46,0-2.91,0-4.37,0c-0.85-10.5-1.56-21.02-2.57-31.5c-1.24-12.84-2.23-25.7-3.06-38.57
			c-1.05-16.38-0.26-32.72,0.42-49.06c0.68-16.16,1.91-32.29,2.9-48.43c1.95-31.63,1.46-63.3,0.81-94.94
			c-0.26-12.9-0.04-25.85-1-38.72c-1.28-17.08-0.71-34.18-1.08-51.27c-0.2-9.44-1.1-18.86-1.57-28.3
			c-0.24-4.72-0.26-9.46-0.32-14.19c-0.38-28.37-3-56.67-2.43-85.07c0.44-22.01,1.1-44.05-0.08-66.05
			c-0.79-14.73-0.93-29.45-0.64-44.18c0.11-5.26,0.6-10.53,1.27-15.75c1.25-9.83,6.73-17.09,14.57-22.75
			c2.62-1.89,5.25-3.78,8.22-5.34c-4.36-0.36-8.14-2.06-11.89-3.79c-2.08-0.96-3.68-0.9-5.3,0.93c-1.56,1.76-3.55,3.14-5.16,4.86
			c-13.69,14.6-28.74,27.85-42.22,42.67c-7.32,8.04-9.55,7.7-15.73-1.15c-8.33-11.93-16.27-24.13-23.83-36.57
			c-7.71-12.7-11.6-26.56-12.86-41.26c-0.32-3.76-0.77-7.51-1.16-11.28c-1.84,0-2.13,1.49-2.81,2.44
			c-6.12,8.56-13.96,15.22-22.64,21.07c-14.72,9.94-30.84,17.05-47.13,23.86c-21.48,8.98-42.85,18.18-63.76,28.44
			c-10.95,5.37-21.39,11.65-31.58,18.36c-12.45,8.21-20.93,19.36-26.43,33.14c-6.63,16.62-11.08,33.86-14.96,51.24
			c-6.61,29.62-14.41,58.94-21.98,88.32c-6.16,23.92-12.93,47.71-17.04,72.12c-2.41,14.33-4.65,28.69-6.74,43.06
			c-3.17,21.79-8.19,43.19-13.66,64.48c-7.47,29.08-12.86,58.52-16.52,88.32c-1.8,14.63-3.41,29.28-3.61,43.98
			c-0.16,11.79,1.01,23.6,3.25,35.24c3.92,20.39,9.7,40.26,16.35,59.91c0.64,1.89,1.15,3.82,1.72,5.73c-1.82,0-3.64,0-5.46,0
			c-12.56-33.36-22.23-67.36-21.66-103.42c0.26-16.75,2.65-33.35,4.63-49.97c4.2-35.31,12.99-69.64,21.76-103.98
			c4.68-18.34,7.64-37.02,10.22-55.74c3.73-27.05,9.64-53.62,16.66-79.99c11.36-42.66,22.31-85.43,31.78-128.57
			c2.73-12.44,6.77-24.5,11.85-36.22c5.35-12.34,13.36-22.36,24.44-30.07c12.58-8.75,25.88-16.17,39.7-22.74
			c24.45-11.63,49.5-21.89,74.39-32.53c11.74-5.02,22.82-11.2,33.43-18.3c11.15-7.46,19.74-17.17,25.86-29.02
			c5.34-10.33,10.43-20.79,16.15-30.93c3.84-6.81,5.37-13.96,4.5-21.95c-1.24-11.38-2.21-22.8-3.55-34.17
			c-0.3-2.5-0.68-4.97-1.9-7.32c-5.67-10.85-9.81-22.26-12.29-34.26c-0.21-1.04-0.64-2.03-1.06-3.33
			c-7.68,1.98-12.92-1.98-17.51-7.28c-6.73-7.79-10.35-17.13-12.3-27.01c-2.25-11.42-4.82-22.75-7.56-34.06
			c-0.95-3.92-1.24-7.94-0.31-11.91c1.66-7.12,6.1-9.82,13.53-8.15c0.6-2.54-0.47-4.93-0.76-7.3c-1.65-13.3-0.64-26.6,0.58-39.78
			c1.93-20.82,4.39-41.59,6.05-62.44c1.04-13.02,5.58-24.75,13.4-35.2c7.56-10.11,16.39-19.01,26.2-26.94
			c7.02-5.68,14.88-9.66,23.65-11.95c10.56-2.76,21.19-5.12,32.04-6.44c12.84-1.57,25.36,0.55,37.95,2.62
			c19.75,3.25,39.05,8.49,58.57,12.78c13.8,3.03,23.53,10.73,29.93,23.16c4.01,7.79,6.84,16.03,9.88,24.2
			c2.59,6.98,4.93,14.08,7.91,20.89c5.5,12.55,7.87,25.75,8.33,39.25c0.68,19.82,0.78,39.67-1.12,59.46
			c-0.39,1.33-0.88,2.72,1.45,2.41c5.1-1.41,8.02,0.24,10.25,6.24c2.36,6.34,2.18,12.93,1.37,19.42
			c-1.96,15.69-4.29,31.33-8.5,46.63c-1.01,3.68-1.96,7.4-3.87,10.73c-2.81,4.91-6.63,8.11-13.02,6.61
			c-2.2,12.62-6.62,24.28-12.38,35.47c-0.66,1.28-1,2.61-0.92,4.17c0.87,18.16,2.09,36.31,1.75,54.51
			c-0.07,3.79,0.82,7.09,3.37,10.04c4.43,5.12,7.72,11.03,10.78,17.01c10.47,20.51,27.01,33.85,48.46,41.46
			c21.89,7.77,43.63,16,65.86,22.79c10.62,3.24,20.79,7.61,30.59,12.86c18.11,9.71,35.87,20.01,52.65,31.92
			c1.33,0.95,2.63,1.96,3.98,2.87c15.6,10.56,25.16,25.2,30.33,43.23c6.47,22.55,11.51,45.43,17.06,68.19
			c6.19,25.42,12.13,50.9,17.07,76.6c4.2,21.81,6.77,43.84,8.12,66c1.67,27.42,4.12,54.76,7.39,82.03
			c3.6,29.97,7.08,59.96,9.31,90.07c3.28,44.18,2.23,88.36,0.12,132.54c-0.52,10.9-1.2,21.8-1.77,32.7
			c-0.04,0.69,0.23,1.39,0.35,2.09C1399.27,1682.36,1397.81,1682.36,1396.35,1682.36z"/>
		<path class="st5" d="M997.68,1682.36c0.63-9.67-0.89-19.23-1.62-28.82c-0.43-5.6-0.77-11.23-1.26-16.83
			c-0.69-7.95-1.31-15.93-1.69-23.92c-0.43-9.09-0.9-18.17-0.67-27.26c0.49-19.07,1.37-38.13,2.83-57.15
			c0.32-4.17,0.09-8.38,0.34-12.55c1.71-28.36,1.48-56.75,0.7-85.12c-0.39-14,0.02-28.04-1.02-41.99
			c-1.91-25.61-1.13-51.26-2.16-76.87c-0.86-21.44-0.91-42.9-2.2-64.31c-1.63-27.11-0.85-54.2-0.68-81.3
			c0.1-16.57-1.18-33.08-1.37-49.62c-0.11-9.83,0.07-19.66,0.03-29.48c-0.02-4.03,0.66-7.97,1.3-11.91
			c1.8-11.12,9.55-17.56,18.4-23.08c1.58-0.99,2.64-0.48,3.6,0.99c2.87,4.42,5.78,8.82,8.75,13.17c1.03,1.51,0.86,3.12,0.78,4.74
			c-0.31,6.35-0.81,12.69-1,19.05c-0.44,14.37-0.13,28.74,1.08,43.07c1.1,13.02,2.6,26.01,3.91,39.01c0.16,1.63,0.18,3.27,0.24,4.91
			c0.43,11.26,0.63,22.54,1.36,33.78c0.63,9.78,2.12,19.5,2.74,29.28c0.67,10.52,1.36,21.04,1.59,31.59
			c0.31,14.53,0.93,29.05,1.72,43.57c0.57,10.53,0.32,21.11,0.23,31.66c-0.25,31.67-0.1,63.34,0.3,95.01
			c0.08,6.54,1.13,13.06,0.67,19.61c-0.95,13.6-0.51,27.25-1.68,40.85c-0.54,6.33-0.25,12.73-0.4,19.1
			c-0.83,35.83-1.9,71.68-0.81,107.51c0.49,16.15,1.12,32.32,2.86,48.41c0.18,1.63,0.19,3.27,0.27,4.91
			C1022.44,1682.36,1010.06,1682.36,997.68,1682.36z"/>
		<path class="st0" d="M1265.28,1682.36c-9.83,0-19.66,0-29.49,0c-1.43-1.57-1.56-3.61-2.03-5.55c-6.1-25.24-4.62-50.45,0.34-75.64
			c3.44-17.45,7.64-34.77,9.33-52.53c1.03-3.36,0.62-6.82,0.63-10.23c0.05-13.91-0.03-27.81,0.06-41.72
			c0.02-2.39-0.73-5.2,2.14-6.76c3.61,3.9,2.7,9.04,2.8,13.44c0.6,27.06,5.51,53.49,10.62,79.93c3.28,16.99,4.03,34.26,5.28,51.5
			c0.83,11.43,0.25,22.9,1.71,34.3C1267.24,1673.47,1268.09,1678.2,1265.28,1682.36z"/>
		<path class="st4" d="M767.21,1682.36c-4.13-19.54-7.97-39.11-10.07-59.02c-2.38-22.5-0.46-44.59,4.04-66.62
			c4.25-20.85,7.39-41.81,7.46-63.2c0.05-14.35,2.21-28.58,4.48-42.76c1.92-12.02,3.1-24.12,4.09-36.26
			c0.93-11.44,1.22-22.88,0.88-34.33c-0.25-8.35-0.94-16.69-1.54-25.02c-0.14-2.01-0.59-3.97,1.1-5.55c1.28,0.49,1.37,1.6,1.58,2.68
			c3.78,19.6,4.18,39.35,2.7,59.18c-0.21,2.8,0.29,5.46,0.75,8.1c2.08,11.88,2.38,23.86,2.23,35.86
			c-0.13,10.56,0.56,21.09,1.28,31.6c0.79,11.6,2.26,23.19,1.71,34.82c-1.63,34.36-0.22,68.74-1.03,103.1
			c-0.39,16.37-2.41,32.59-4.85,48.77c-0.43,2.88-0.91,5.74-0.59,8.66c-1.82,0-3.64,0-5.46,0c-1.46-1.68-1.45-3.67-1.13-5.68
			c6.19-38.04,4.53-76.4,5-114.69c0.19-15.78,0.88-31.56,1.05-47.35c0.18-16.55-2.65-32.93-2.31-49.47
			c0.16-7.62,0.48-15.22,1.22-22.79c0.01-1.22,0.01-2.45,0.01-3.67c0.07-0.93-0.21-1.96,0.21-2.63c-0.99,0.38,0.13,1.56-0.24,2.33
			c0,1.19,0,2.37,0,3.55c-1.21,20.83-4.83,41.42-4.63,62.43c0.15,15.77-2.48,31.55-6.03,46.96c-7.64,33.18-7.08,66.3-0.96,99.56
			c1.51,8.22,3.13,16.43,4.34,24.7c0.34,2.34,0.86,4.7-0.9,6.76C770.12,1682.36,768.67,1682.36,767.21,1682.36z"/>
		<path class="st0" d="M780.27,1441.01c0.04,6,0.2,12,0.09,18c-0.24,13.12,0.71,26.17,1.7,39.24c1.05,13.81,0.92,27.65,0.25,41.46
			c-0.83,17.09-1.01,34.19-0.68,51.29c0.56,29.34-0.99,58.53-5.47,87.55c-0.19,1.25-0.15,2.54-0.21,3.81c-1.46,0-2.91,0-4.37,0
			c-0.53-8.18-2.45-16.15-3.8-24.21c-3.65-21.73-7.06-43.46-6.14-65.61c0.51-12.22,2.7-24.21,5.01-36.16
			c4.21-21.83,7.36-43.74,7.18-66.05c-0.1-12.41,2-24.64,3.68-36.89c0.57-4.14,1.2-8.27,1.81-12.41
			C779.62,1440.51,779.94,1440.5,780.27,1441.01z"/>
		<path class="st4" d="M1265.28,1682.36c-0.54-13.6-0.95-27.21-1.66-40.8c-0.61-11.59-1.34-23.18-2.44-34.75
			c-1.46-15.39-4.15-30.55-7.37-45.63c-3.53-16.56-5.14-33.32-5.97-50.2c-0.34-6.89-0.87-13.76-1.32-20.65
			c-1.1-1.35-0.84-2.98-0.9-4.46c-0.04,0.07-0.01,0.1-0.01,0.11c0,0.35-0.01,0.7-0.01,1.08c-1.2,16.39-0.22,32.76-0.56,49.13
			c-0.09,4.35,0.44,8.72-0.34,13.06c-0.78,14.77-4.27,29.1-7.24,43.51c-2.71,13.19-4.86,26.45-5.89,39.88
			c-1.13,14.64,0.78,29.03,3.62,43.34c0.42,2.11,1.28,4.17,0.6,6.38c-1.46,0-2.91,0-4.37,0c-1.86-8.88-3.79-17.75-4.83-26.79
			c-1.11-9.62-0.93-19.22-0.1-28.84c1.59-18.52,5.93-36.55,9.56-54.7c2.57-12.87,3.85-25.86,3.88-38.98
			c0.04-17.46-0.44-34.94,0.33-52.39c0.69-15.42,1.98-30.82,2.74-46.24c0.7-14.17,0.55-28.37,0.42-42.56
			c-0.19-20-1.56-39.98-0.94-59.99c0.13-4.27,0.41-8.51,1.92-12.73c1.7,0.73,1.27,1.92,1.3,2.84c0.45,18.18,0.5,36.37,1.39,54.52
			c0.92,18.73,0.97,37.44,0.64,56.17c-0.08,4.35-0.34,8.72-0.8,13.05c-1.21,11.36,1.11,22.48,2.33,33.65
			c1.11,10.12,2.16,20.26,2.64,30.39c0.92,19.51,4.15,38.62,8.14,57.66c3.17,15.13,5.27,30.39,6.63,45.79
			c1.93,21.93,2.49,43.91,3.2,65.88c0.04,1.08-0.14,2.17-0.22,3.25C1268.2,1682.36,1266.74,1682.36,1265.28,1682.36z"/>
		<path class="st6" d="M1122.36,766.18c-0.59,0.69-1.36,1.37-2.05,0.37c-0.66-0.95-0.18-1.98,0.6-2.79
			C1121.31,764.63,1121.04,765.88,1122.36,766.18z"/>
		<path class="st7" d="M1106.74,814.65c-0.33,13.99-0.13,28.01-3.01,41.83c-1.37,6.61-3.04,13.15-5.79,19.29
			c-6.9,15.43-13.53,31-21.83,45.76c-6.45,11.47-13.88,22.24-23.58,31.25c-12.17,11.29-26.22,18.2-43.19,17.97
			c-5.12-0.07-10.11-0.96-15.07-2.24c-25.05-6.46-46.13-18.95-62.51-39.41c-16.6-20.74-29.81-42.99-35.2-69.34
			c-3.06-14.97-5.03-30.11-6.89-45.26c-1.48-12.06-1.74-24.27-4.17-36.23c-1.14-5.59,0.69-10.83,2.76-15.89
			c1.93-4.7,3.94-9.41,6.39-13.85c6.47-11.74,9.1-24.45,10.14-37.61c0.47-5.98,0.8-11.98,2.13-17.86
			c3.01-13.23,10.12-19.12,23.73-19.62c8.75-0.32,17.45,0.62,26.14,1.37c12.15,1.05,24.25,1.82,36.49,1.08
			c12.52-0.77,25.11-0.59,37.66,0.03c7.8,0.38,15.61,0.48,23.4,1.53c9.97,1.34,16.93,6.09,20.39,15.66
			c0.49,1.37,1.12,2.69,1.58,4.06c5.5,16.21,12.14,31.95,20.14,47.08c6.8,12.85,9.74,26.47,9.5,40.97
			C1105.78,795.01,1107.04,804.81,1106.74,814.65z"/>
		<path class="st8" d="M884.5,795.79c-5.88-9.78-11.61-19.58-13.35-31.08c-0.22-1.43-0.17-2.9-0.17-4.36
			c-0.01-8.19-0.01-16.38,0.01-24.57c0.02-6.71,1.43-13.3,1.85-19.95c0.52-8.32,2-16.51,2.69-24.8c0.57-6.82,0.91-13.68,1.81-20.51
			c0.92-6.99,1.56-13.98,3.36-20.84c2.69-10.26,7.91-19.09,14.99-26.79c5.29-5.76,10.9-11.23,16.58-16.61
			c7.22-6.85,15.66-11.54,25.35-14.18c9.09-2.48,18.3-4.64,27.56-5.89c5.92-0.8,12.07-1.07,18.27-0.66
			c20.7,1.39,40.66,6.44,60.79,10.8c7.61,1.65,15.09,3.86,22.71,5.4c11.42,2.3,18.9,9.26,24.23,19.15
			c2.94,5.46,5.33,11.15,7.3,16.99c4.42,13.07,9.92,25.72,14.47,38.73c2.21,6.33,2.95,12.99,4.03,19.6
			c1.39,8.48-0.32,17.07,1.86,25.44c0.85,3.25-1.15,6.36-1.05,9.68c0.19,6-0.11,12.01,0.08,18.01c0.36,11.41-1.46,22.37-5.92,32.9
			c-0.35,0.82-0.47,1.74-0.66,2.62c-0.18,0.83,0.19,1.85-1.6,2.69c0.86-3.76-0.58-6.96-0.58-10.35c0.02-11.09-2.87-21.47-7.87-31.28
			c-8.42-16.51-15.45-33.59-21.56-51.07c-1.56-4.45-3.55-8.7-6.6-12.43c-5.56-6.8-13.34-8.13-21.34-9.29
			c-11.76-1.7-23.58-0.61-35.35-1.16c-5.23-0.24-10.51-1.76-15.69-0.86c-9.42,1.65-18.86,0.93-28.27,0.83
			c-6.47-0.07-12.98-0.66-19.4-1.82c-1.07-0.19-2.17-0.2-3.26-0.22c-3.98-0.09-7.91-0.32-11.9-0.88
			c-6.69-0.94-13.41,0.12-19.77,2.51c-6.53,2.46-10.62,7.57-13.1,13.83c-2.34,5.92-3.14,12.15-3.57,18.57
			c-1.01,15.2-2.84,30.27-10.43,44.01c-3.85,6.97-7,14.25-8.63,22.22c-0.97,4.73,0.07,9.08,0.86,13.42
			C883.95,787.66,883.61,791.75,884.5,795.79z"/>
		<path class="st7" d="M913.56,911.31c4.26,6.34,8.79,12.49,13.37,18.61c15.49,20.75,35.82,34.28,60.56,41.5
			c6.82,1.99,13.66,3.92,20.79,4.13c18.28,0.53,33.68-6.45,46.9-18.64c11.1-10.23,19.49-22.54,26.63-35.73
			c3.26-6.03,6.25-12.21,9.43-18.45c1.29,1.68,1.08,3.37,1.1,4.98c0.16,13.28,0.32,26.57,0.42,39.85c0.05,6.75-0.59,13.46-1.68,20.1
			c-2.13,12.98-8.54,23.84-17.06,33.61c-12.04,13.79-26.78,23.97-42.98,32.2c-5.99,3.05-11.98,6.11-18.3,8.47
			c-4.9,1.83-9.36,1.63-14.05-1.09c-16.36-9.48-32.95-18.56-49.3-28.04c-9.19-5.33-17.34-11.97-23.65-20.71
			c-6.04-8.37-9.3-17.6-9.61-27.92c-0.39-12.91-1.55-25.78-2.59-38.65c-0.32-3.99-0.82-7.96-1.23-11.93
			C911.98,912.42,911.48,911.15,913.56,911.31z"/>
		<path class="st5" d="M1013.58,1046.98c10.77-4.46,21.18-9.64,31.15-15.64c17.52-10.54,32.66-23.67,43.26-41.46
			c4.44-7.44,6.88-15.58,7.97-24.14c0.15-1.2-0.26-2.55,1.23-4.04c2.67,2.71,4.44,5.98,6.13,9.25c4.6,8.89,9.27,17.73,15.63,25.54
			c0.11,0.14,0.18,0.34,0.32,0.44c5.39,3.6,4.31,8.32,2.46,13.32c-3.42,9.23-7.32,18.22-12.56,26.58
			c-12.36,19.71-24.77,39.39-37.19,59.07c-1.55,2.46-3.28,4.79-5.29,6.92c-1.86,1.98-3.6,2.27-5.55,0.25
			c-0.38-0.39-0.8-0.74-1.18-1.13c-15.55-15.84-30.93-31.83-43.6-50.16C1015.36,1050.31,1014.07,1048.99,1013.58,1046.98z"/>
		<path class="st5" d="M912.23,959.49c0.22,3.4,0.29,6.82,0.69,10.19c1.99,16.97,11.13,29.62,24.33,39.74
			c8.39,6.43,17.58,11.62,26.87,16.6c8.65,4.63,16.7,10.22,25.17,15.15c-16.17,14.9-31.33,30.45-46.54,45.95
			c-1.52,1.55-2.89,3.26-4.4,4.83c-1.54,1.61-3.05,1.78-4.46-0.25c-1.03-1.49-2.19-2.9-3.22-4.39
			c-9.19-13.32-18.17-26.77-25.65-41.14c-8.28-15.92-10.74-33-10.04-50.71c0.07-1.87,0.67-3.54,1.38-5.23
			C900.8,979.66,906.29,969.61,912.23,959.49z"/>
		<path class="st7" d="M865.57,774.03c2.04,0.74,4.2,0.76,5.19,3.38c3.14,8.37,8.08,15.82,12.59,23.47
			c1.13,1.92,1.84,3.79,2.11,6.03c1.88,15.3,3.36,30.66,6.02,45.86c0.5,2.85-0.75,3.97-3.69,3.5c-3.18-0.52-5.68-2.35-7.9-4.55
			c-4.59-4.56-7.7-10.07-9.98-16.07c-2.26-5.96-3.85-12.09-4.78-18.4c-1.5-10.25-4.72-20.13-6.55-30.31
			c-0.68-3.76-0.04-7.23,2.03-10.41C861.78,774.74,863.38,773.68,865.57,774.03z"/>
		<path class="st9" d="M1130.04,787.8c-1.46,17.56-4.54,36.52-10.23,54.99c-0.96,3.13-2.29,6.19-5.24,8.06
			c-1.19,0.75-2.45,1.63-4.02,0.68c-1.47-0.89-0.92-2.16-0.81-3.39c1.15-12.86,0.83-25.77,1.08-38.66
			c0.14-7.44,0.76-14.87,3.09-22.01c1.35-4.14,2.91-8.21,4.35-12.32c0.68-1.94,1.65-3.62,3.55-4.63c3.16-1.69,5.11-1.1,6.5,2.22
			C1130.09,777.02,1130.19,781.57,1130.04,787.8z"/>
		<path class="st10" d="M913.56,911.31c-1.07,0.4-0.86,1.51-1.26,2.28c-1.19-1.34-0.91-2.94-1.03-4.94
			C912.81,909.25,913.41,910.08,913.56,911.31z"/>
		<path class="st11" d="M1246.57,1484.88c0.1,1.82,0.59,3.64-0.04,5.46c-1.68,3.23-0.98,6.74-1.06,10.12
			c-0.31,14.5,0.81,29,0.01,43.5c-0.1,1.77,0.34,3.65-0.78,5.28c-0.8-7.75,0.32-15.49,0.01-23.26c-0.54-13.72-0.47-27.45-0.09-41.18
			C1245.3,1484.04,1245.95,1484.03,1246.57,1484.88z"/>
		<path class="st12" d="M779.42,1437.79c-0.01-0.85-0.72-2.14,0.59-2.26c0.59-0.05,0.5,1.39,0.26,2.2
			C780.01,1438.19,779.73,1438.2,779.42,1437.79z"/>
		<path class="st13" d="M779.42,1437.79c0.28-0.01,0.57-0.02,0.85-0.05c0.23,1.09,0.5,2.18,0,3.28l-0.48-0.01l-0.48,0.03
			C778.87,1439.94,779.22,1438.87,779.42,1437.79z"/>
		<path class="st14" d="M1246.57,1484.88c-0.65-0.02-1.3-0.05-1.95-0.07c-0.03-0.7-0.08-1.4-0.07-2.1c0.01-0.7,0.09-1.6,0.85-1.7
			c1.26-0.18,1.22,0.95,1.27,1.78C1246.71,1483.48,1246.61,1484.18,1246.57,1484.88z"/>
	</g>
</g>
</svg>
