<?xml version="1.0" encoding="utf-8"?>
<!-- Generator: Adobe Illustrator 25.2.0, SVG Export Plug-In . SVG Version: 6.00 Build 0)  -->
<svg version="1.1" id="Layer_1" xmlns="http://www.w3.org/2000/svg" xmlns:xlink="http://www.w3.org/1999/xlink" x="0px" y="0px"
	 viewBox="0 0 800 800" style="enable-background:new 0 0 800 800;" xml:space="preserve">
<g>
	<circle cx="116" cy="733.7" r="61.5"/>
	<path d="M54.5,566.8v52.7h321.3c-10.4-16.3-18.8-34-24.8-52.7H54.5z"/>
	<path d="M567.6,322.8c-96.3,0-174.7,78.4-174.7,174.7s78.4,174.7,174.7,174.7c96.3,0,174.7-78.4,174.7-174.7S664,322.8,567.6,322.8
		z M675.7,523.9H594v81.7h-52.7v-81.7h-81.7v-52.7h81.7v-81.7H594v81.7h81.7V523.9z"/>
	<path d="M691.7,4.8l-21.6,131.8H0L45.5,415c5,30.4,34.2,55.2,65,55.2h231.4c13.6-112.5,109.6-200.1,225.8-200.1
		c47.2,0,91.2,14.5,127.6,39.2l41.3-251.9H800V4.8L691.7,4.8L691.7,4.8z"/>
	<path d="M567.6,725c-21.3,0-42-3-61.6-8.5c-1.6,5.5-2.5,11.3-2.5,17.3c0,34,27.5,61.5,61.5,61.5c34,0,61.5-27.5,61.5-61.5
		c0-5.5-0.7-10.9-2.1-16C606.3,722.5,587.3,725,567.6,725z"/>
</g>
</svg>
